<?xml version="1.0" encoding="utf-8"?>
<!-- Generator: Adobe Illustrator 24.3.0, SVG Export Plug-In . SVG Version: 6.00 Build 0)  -->
<svg version="1.1" id="Layer_1" xmlns="http://www.w3.org/2000/svg" xmlns:xlink="http://www.w3.org/1999/xlink" x="0px" y="0px"
	 viewBox="0 0 512 512" style="enable-background:new 0 0 512 512;" xml:space="preserve">
<style type="text/css">
	.st0{fill:#00ACD2;}
	.st1{fill:#C8E9EB;}
	.st2{fill:#662D91;}
</style>
<g id="XMLID_1_">
	<path id="XMLID_3_" class="st0" d="M403.14,50.65c-61.46-53.06-197.39-79.37-299.3-3.22C8.22,111.68,3.46,228.72,3.46,228.72
		c16.24,64.12,80.91,125.57,205.37,95.61C194.13,238.24,222.97,20.27,403.14,50.65z"/>
	<path id="XMLID_4_" class="st1" d="M339.02,258.95c-67.2,55.86-271.86,140.97-335.56-30.24
		c-15.26,79.79,27.02,212.37,143.91,262.62c103.31,50.68,210.97-7.98,210.97-7.98C405.66,437.16,427.22,351.77,339.02,258.95"/>
	<path id="XMLID_5_" class="st2" d="M217.65,180.7c81.89,30.38,257.16,161.83,140.69,302.52
		c76.71-26.74,166.59-128.79,151.47-255.06C502.11,113.36,403,50.65,403,50.65C339.44,32.73,253.91,58.07,217.65,180.7"/>
</g>
</svg>
